<svg aria-roledescription="er" role="graphics-document document" viewBox="0 0 1388.4632568359375 530.03125" height="530.03125" xmlns="http://www.w3.org/2000/svg" width="1388.4632568359375" id="tmpMermaidElement"><style>#tmpMermaidElement {background: white;}#tmpMermaidElement{font-family:"trebuchet ms",verdana,arial,sans-serif;font-size:16px;fill:#333;}#tmpMermaidElement .error-icon{fill:#552222;}#tmpMermaidElement .error-text{fill:#552222;stroke:#552222;}#tmpMermaidElement .edge-thickness-normal{stroke-width:2px;}#tmpMermaidElement .edge-thickness-thick{stroke-width:3.5px;}#tmpMermaidElement .edge-pattern-solid{stroke-dasharray:0;}#tmpMermaidElement .edge-pattern-dashed{stroke-dasharray:3;}#tmpMermaidElement .edge-pattern-dotted{stroke-dasharray:2;}#tmpMermaidElement .marker{fill:#333333;stroke:#333333;}#tmpMermaidElement .marker.cross{stroke:#333333;}#tmpMermaidElement svg{font-family:"trebuchet ms",verdana,arial,sans-serif;font-size:16px;}#tmpMermaidElement .entityBox{fill:#ECECFF;stroke:#9370DB;}#tmpMermaidElement .attributeBoxOdd{fill:#ffffff;stroke:#9370DB;}#tmpMermaidElement .attributeBoxEven{fill:#f2f2f2;stroke:#9370DB;}#tmpMermaidElement .relationshipLabelBox{fill:hsl(80, 100%, 96.2745098039%);opacity:0.7;background-color:hsl(80, 100%, 96.2745098039%);}#tmpMermaidElement .relationshipLabelBox rect{opacity:0.5;}#tmpMermaidElement .relationshipLine{stroke:#333333;}#tmpMermaidElement .entityTitleText{text-anchor:middle;font-size:18px;fill:#333;}#tmpMermaidElement :root{--mermaid-font-family:"trebuchet ms",verdana,arial,sans-serif;}</style><g></g><defs><marker orient="auto" markerHeight="18" markerWidth="18" refY="9" refX="0" id="ONLY_ONE_START"><path d="M9,0 L9,18 M15,0 L15,18" fill="none" stroke="gray"></path></marker></defs><defs><marker orient="auto" markerHeight="18" markerWidth="18" refY="9" refX="18" id="ONLY_ONE_END"><path d="M3,0 L3,18 M9,0 L9,18" fill="none" stroke="gray"></path></marker></defs><defs><marker orient="auto" markerHeight="18" markerWidth="30" refY="9" refX="0" id="ZERO_OR_ONE_START"><circle r="6" cy="9" cx="21" fill="white" stroke="gray"></circle><path d="M9,0 L9,18" fill="none" stroke="gray"></path></marker></defs><defs><marker orient="auto" markerHeight="18" markerWidth="30" refY="9" refX="30" id="ZERO_OR_ONE_END"><circle r="6" cy="9" cx="9" fill="white" stroke="gray"></circle><path d="M21,0 L21,18" fill="none" stroke="gray"></path></marker></defs><defs><marker orient="auto" markerHeight="36" markerWidth="45" refY="18" refX="18" id="ONE_OR_MORE_START"><path d="M0,18 Q 18,0 36,18 Q 18,36 0,18 M42,9 L42,27" fill="none" stroke="gray"></path></marker></defs><defs><marker orient="auto" markerHeight="36" markerWidth="45" refY="18" refX="27" id="ONE_OR_MORE_END"><path d="M3,9 L3,27 M9,18 Q27,0 45,18 Q27,36 9,18" fill="none" stroke="gray"></path></marker></defs><defs><marker orient="auto" markerHeight="36" markerWidth="57" refY="18" refX="18" id="ZERO_OR_MORE_START"><circle r="6" cy="18" cx="48" fill="white" stroke="gray"></circle><path d="M0,18 Q18,0 36,18 Q18,36 0,18" fill="none" stroke="gray"></path></marker></defs><defs><marker orient="auto" markerHeight="36" markerWidth="57" refY="18" refX="39" id="ZERO_OR_MORE_END"><circle r="6" cy="18" cx="9" fill="white" stroke="gray"></circle><path d="M21,18 Q39,0 57,18 Q39,36 21,18" fill="none" stroke="gray"></path></marker></defs><path style="stroke: gray; fill: none;" marker-start="url(#ONLY_ONE_START)" marker-end="url(#ZERO_OR_MORE_END)" d="M483.023,150.752L418.697,173.796C354.37,196.84,225.716,242.928,161.389,282.305C97.063,321.682,97.063,354.349,97.063,370.682L97.063,387.016" class="er relationshipLine"></path><path style="stroke: gray; fill: none;" marker-start="url(#ONLY_ONE_START)" marker-end="url(#ZERO_OR_MORE_END)" d="M483.023,193.753L468.367,209.63C453.711,225.507,424.4,257.262,409.744,289.472C395.088,321.682,395.088,354.349,395.088,370.682L395.088,387.016" class="er relationshipLine"></path><path style="stroke: gray; fill: none;" marker-start="url(#ONLY_ONE_START)" marker-end="url(#ZERO_OR_MORE_END)" d="M601.632,193.753L616.288,209.63C630.944,225.507,660.256,257.262,674.911,289.472C689.567,321.682,689.567,354.349,689.567,370.682L689.567,387.016" class="er relationshipLine"></path><path style="stroke: gray; fill: none;" marker-start="url(#ONLY_ONE_START)" marker-end="url(#ZERO_OR_MORE_END)" d="M991,239.016L991,247.349C991,255.682,991,272.349,987.925,289.016C984.85,305.682,978.701,322.349,975.626,330.682L972.551,339.016" class="er relationshipLine"></path><path style="stroke: gray; fill: none;" marker-start="url(#ONLY_ONE_START)" marker-end="url(#ZERO_OR_MORE_END)" d="M601.632,158.798L645.574,180.501C689.516,202.204,777.4,245.61,825.998,275.646C874.596,305.682,883.909,322.349,888.565,330.682L893.222,339.016" class="er relationshipLine"></path><path style="stroke: gray; fill: none;" marker-start="url(#ONLY_ONE_START)" marker-end="url(#ONLY_ONE_END)" d="M1263.266,103.88L1274.932,97.9C1286.599,91.92,1309.932,79.96,1324.516,73.98C1339.099,68,1344.932,68,1350.766,78.251C1356.599,88.503,1362.432,109.005,1362.432,129.508C1362.432,150.01,1356.599,170.513,1350.766,180.764C1344.932,191.016,1339.099,191.016,1324.516,185.036C1309.932,179.056,1286.599,167.096,1274.932,161.116L1263.266,155.136" class="er relationshipLine"></path><g transform="translate(483.02330017089844,56 )" id="entity-DISEASE-20e025b8-60c8-5bea-a36b-3926a6dc1901"><rect height="147.015625" width="118.60867309570312" y="0" x="0" class="er entityBox"></rect><text style="dominant-baseline: middle; text-anchor: middle; font-size: 12px;" transform="translate(59.30433654785156,13.5078125)" y="0" x="0" id="text-entity-DISEASE-20e025b8-60c8-5bea-a36b-3926a6dc1901" class="er entityLabel">DISEASE</text><rect height="24" width="37.4693603515625" y="27.015625" x="0" class="er attributeBoxOdd"></rect><text style="dominant-baseline: middle; font-size: 10.2px;" transform="translate(5,39.015625)" y="0" x="0" id="text-entity-DISEASE-20e025b8-60c8-5bea-a36b-3926a6dc1901-attr-1-type" class="er entityLabel">string</text><rect height="24" width="81.13931274414062" y="27.015625" x="37.4693603515625" class="er attributeBoxOdd"></rect><text style="dominant-baseline: middle; font-size: 10.2px;" transform="translate(42.4693603515625,39.015625)" y="0" x="0" id="text-entity-DISEASE-20e025b8-60c8-5bea-a36b-3926a6dc1901-attr-1-name" class="er entityLabel">UMLS_CUI</text><rect height="24" width="37.4693603515625" y="51.015625" x="0" class="er attributeBoxEven"></rect><text style="dominant-baseline: middle; font-size: 10.2px;" transform="translate(5,63.015625)" y="0" x="0" id="text-entity-DISEASE-20e025b8-60c8-5bea-a36b-3926a6dc1901-attr-2-type" class="er entityLabel">string</text><rect height="24" width="81.13931274414062" y="51.015625" x="37.4693603515625" class="er attributeBoxEven"></rect><text style="dominant-baseline: middle; font-size: 10.2px;" transform="translate(42.4693603515625,63.015625)" y="0" x="0" id="text-entity-DISEASE-20e025b8-60c8-5bea-a36b-3926a6dc1901-attr-2-name" class="er entityLabel">Disease_Name</text><rect height="24" width="37.4693603515625" y="75.015625" x="0" class="er attributeBoxOdd"></rect><text style="dominant-baseline: middle; font-size: 10.2px;" transform="translate(5,87.015625)" y="0" x="0" id="text-entity-DISEASE-20e025b8-60c8-5bea-a36b-3926a6dc1901-attr-3-type" class="er entityLabel">string</text><rect height="24" width="81.13931274414062" y="75.015625" x="37.4693603515625" class="er attributeBoxOdd"></rect><text style="dominant-baseline: middle; font-size: 10.2px;" transform="translate(42.4693603515625,87.015625)" y="0" x="0" id="text-entity-DISEASE-20e025b8-60c8-5bea-a36b-3926a6dc1901-attr-3-name" class="er entityLabel">MeSH</text><rect height="24" width="37.4693603515625" y="99.015625" x="0" class="er attributeBoxEven"></rect><text style="dominant-baseline: middle; font-size: 10.2px;" transform="translate(5,111.015625)" y="0" x="0" id="text-entity-DISEASE-20e025b8-60c8-5bea-a36b-3926a6dc1901-attr-4-type" class="er entityLabel">string</text><rect height="24" width="81.13931274414062" y="99.015625" x="37.4693603515625" class="er attributeBoxEven"></rect><text style="dominant-baseline: middle; font-size: 10.2px;" transform="translate(42.4693603515625,111.015625)" y="0" x="0" id="text-entity-DISEASE-20e025b8-60c8-5bea-a36b-3926a6dc1901-attr-4-name" class="er entityLabel">OMIM</text><rect height="24" width="37.4693603515625" y="123.015625" x="0" class="er attributeBoxOdd"></rect><text style="dominant-baseline: middle; font-size: 10.2px;" transform="translate(5,135.015625)" y="0" x="0" id="text-entity-DISEASE-20e025b8-60c8-5bea-a36b-3926a6dc1901-attr-5-type" class="er entityLabel">string</text><rect height="24" width="81.13931274414062" y="123.015625" x="37.4693603515625" class="er attributeBoxOdd"></rect><text style="dominant-baseline: middle; font-size: 10.2px;" transform="translate(42.4693603515625,135.015625)" y="0" x="0" id="text-entity-DISEASE-20e025b8-60c8-5bea-a36b-3926a6dc1901-attr-5-name" class="er entityLabel">Semantic_Type</text></g><g transform="translate(20,387.015625 )" id="entity-DISEASEMESHCLASS-7c9d432d-a61a-57f9-aec1-cdcd2356f252"><rect height="75.015625" width="154.125" y="0" x="0" class="er entityBox"></rect><text style="dominant-baseline: middle; text-anchor: middle; font-size: 12px;" transform="translate(77.0625,13.5078125)" y="0" x="0" id="text-entity-DISEASEMESHCLASS-7c9d432d-a61a-57f9-aec1-cdcd2356f252" class="er entityLabel">DISEASE_MESH_CLASS</text><rect height="24" width="62.32353210449219" y="27.015625" x="0" class="er attributeBoxOdd"></rect><text style="dominant-baseline: middle; font-size: 10.2px;" transform="translate(5,39.015625)" y="0" x="0" id="text-entity-DISEASEMESHCLASS-7c9d432d-a61a-57f9-aec1-cdcd2356f252-attr-1-type" class="er entityLabel">string</text><rect height="24" width="91.80146789550781" y="27.015625" x="62.32353210449219" class="er attributeBoxOdd"></rect><text style="dominant-baseline: middle; font-size: 10.2px;" transform="translate(67.32353210449219,39.015625)" y="0" x="0" id="text-entity-DISEASEMESHCLASS-7c9d432d-a61a-57f9-aec1-cdcd2356f252-attr-1-name" class="er entityLabel">UMLS_CUI</text><rect height="24" width="62.32353210449219" y="51.015625" x="0" class="er attributeBoxEven"></rect><text style="dominant-baseline: middle; font-size: 10.2px;" transform="translate(5,63.015625)" y="0" x="0" id="text-entity-DISEASEMESHCLASS-7c9d432d-a61a-57f9-aec1-cdcd2356f252-attr-2-type" class="er entityLabel">string</text><rect height="24" width="91.80146789550781" y="51.015625" x="62.32353210449219" class="er attributeBoxEven"></rect><text style="dominant-baseline: middle; font-size: 10.2px;" transform="translate(67.32353210449219,63.015625)" y="0" x="0" id="text-entity-DISEASEMESHCLASS-7c9d432d-a61a-57f9-aec1-cdcd2356f252-attr-2-name" class="er entityLabel">MeSH_Class</text></g><g transform="translate(274.125,387.015625 )" id="entity-DISEASEPHENOTYPICABNORMALITY-b16b4955-3c38-52a6-9032-bdb5af25d8c2"><rect height="75.015625" width="241.92578125" y="0" x="0" class="er entityBox"></rect><text style="dominant-baseline: middle; text-anchor: middle; font-size: 12px;" transform="translate(120.962890625,13.5078125)" y="0" x="0" id="text-entity-DISEASEPHENOTYPICABNORMALITY-b16b4955-3c38-52a6-9032-bdb5af25d8c2" class="er entityLabel">DISEASE_PHENOTYPIC_ABNORMALITY</text><rect height="24" width="76.47962951660156" y="27.015625" x="0" class="er attributeBoxOdd"></rect><text style="dominant-baseline: middle; font-size: 10.2px;" transform="translate(5,39.015625)" y="0" x="0" id="text-entity-DISEASEPHENOTYPICABNORMALITY-b16b4955-3c38-52a6-9032-bdb5af25d8c2-attr-1-type" class="er entityLabel">string</text><rect height="24" width="165.44615173339844" y="27.015625" x="76.47962951660156" class="er attributeBoxOdd"></rect><text style="dominant-baseline: middle; font-size: 10.2px;" transform="translate(81.47962951660156,39.015625)" y="0" x="0" id="text-entity-DISEASEPHENOTYPICABNORMALITY-b16b4955-3c38-52a6-9032-bdb5af25d8c2-attr-1-name" class="er entityLabel">UMLS_CUI</text><rect height="24" width="76.47962951660156" y="51.015625" x="0" class="er attributeBoxEven"></rect><text style="dominant-baseline: middle; font-size: 10.2px;" transform="translate(5,63.015625)" y="0" x="0" id="text-entity-DISEASEPHENOTYPICABNORMALITY-b16b4955-3c38-52a6-9032-bdb5af25d8c2-attr-2-type" class="er entityLabel">string</text><rect height="24" width="165.44615173339844" y="51.015625" x="76.47962951660156" class="er attributeBoxEven"></rect><text style="dominant-baseline: middle; font-size: 10.2px;" transform="translate(81.47962951660156,63.015625)" y="0" x="0" id="text-entity-DISEASEPHENOTYPICABNORMALITY-b16b4955-3c38-52a6-9032-bdb5af25d8c2-attr-2-name" class="er entityLabel">Phenotypic_Abnormality</text></g><g transform="translate(616.05078125,387.015625 )" id="entity-DISEASEONTOLOGY-5f81f725-d4f9-5e91-952c-cc446ff554ba"><rect height="75.015625" width="147.033203125" y="0" x="0" class="er entityBox"></rect><text style="dominant-baseline: middle; text-anchor: middle; font-size: 12px;" transform="translate(73.5166015625,13.5078125)" y="0" x="0" id="text-entity-DISEASEONTOLOGY-5f81f725-d4f9-5e91-952c-cc446ff554ba" class="er entityLabel">DISEASE_ONTOLOGY</text><rect height="24" width="62.92315673828125" y="27.015625" x="0" class="er attributeBoxOdd"></rect><text style="dominant-baseline: middle; font-size: 10.2px;" transform="translate(5,39.015625)" y="0" x="0" id="text-entity-DISEASEONTOLOGY-5f81f725-d4f9-5e91-952c-cc446ff554ba-attr-1-type" class="er entityLabel">string</text><rect height="24" width="84.11004638671875" y="27.015625" x="62.92315673828125" class="er attributeBoxOdd"></rect><text style="dominant-baseline: middle; font-size: 10.2px;" transform="translate(67.92315673828125,39.015625)" y="0" x="0" id="text-entity-DISEASEONTOLOGY-5f81f725-d4f9-5e91-952c-cc446ff554ba-attr-1-name" class="er entityLabel">UMLS_CUI</text><rect height="24" width="62.92315673828125" y="51.015625" x="0" class="er attributeBoxEven"></rect><text style="dominant-baseline: middle; font-size: 10.2px;" transform="translate(5,63.015625)" y="0" x="0" id="text-entity-DISEASEONTOLOGY-5f81f725-d4f9-5e91-952c-cc446ff554ba-attr-2-type" class="er entityLabel">string</text><rect height="24" width="84.11004638671875" y="51.015625" x="62.92315673828125" class="er attributeBoxEven"></rect><text style="dominant-baseline: middle; font-size: 10.2px;" transform="translate(67.92315673828125,63.015625)" y="0" x="0" id="text-entity-DISEASEONTOLOGY-5f81f725-d4f9-5e91-952c-cc446ff554ba-attr-2-name" class="er entityLabel">Ontology</text></g><g transform="translate(918.734375,20 )" id="entity-GENE-fc82c0b4-a810-5129-91d6-3282fadf09bd"><rect height="219.015625" width="144.53125" y="0" x="0" class="er entityBox"></rect><text style="dominant-baseline: middle; text-anchor: middle; font-size: 12px;" transform="translate(72.265625,13.5078125)" y="0" x="0" id="text-entity-GENE-fc82c0b4-a810-5129-91d6-3282fadf09bd" class="er entityLabel">GENE</text><rect height="24" width="47.078125" y="27.015625" x="0" class="er attributeBoxOdd"></rect><text style="dominant-baseline: middle; font-size: 10.2px;" transform="translate(5,39.015625)" y="0" x="0" id="text-entity-GENE-fc82c0b4-a810-5129-91d6-3282fadf09bd-attr-1-type" class="er entityLabel">int</text><rect height="24" width="97.453125" y="27.015625" x="47.078125" class="er attributeBoxOdd"></rect><text style="dominant-baseline: middle; font-size: 10.2px;" transform="translate(52.078125,39.015625)" y="0" x="0" id="text-entity-GENE-fc82c0b4-a810-5129-91d6-3282fadf09bd-attr-1-name" class="er entityLabel">Entrez_ID</text><rect height="24" width="47.078125" y="51.015625" x="0" class="er attributeBoxEven"></rect><text style="dominant-baseline: middle; font-size: 10.2px;" transform="translate(5,63.015625)" y="0" x="0" id="text-entity-GENE-fc82c0b4-a810-5129-91d6-3282fadf09bd-attr-2-type" class="er entityLabel">string</text><rect height="24" width="97.453125" y="51.015625" x="47.078125" class="er attributeBoxEven"></rect><text style="dominant-baseline: middle; font-size: 10.2px;" transform="translate(52.078125,63.015625)" y="0" x="0" id="text-entity-GENE-fc82c0b4-a810-5129-91d6-3282fadf09bd-attr-2-name" class="er entityLabel">Gene_Symbol</text><rect height="24" width="47.078125" y="75.015625" x="0" class="er attributeBoxOdd"></rect><text style="dominant-baseline: middle; font-size: 10.2px;" transform="translate(5,87.015625)" y="0" x="0" id="text-entity-GENE-fc82c0b4-a810-5129-91d6-3282fadf09bd-attr-3-type" class="er entityLabel">string</text><rect height="24" width="97.453125" y="75.015625" x="47.078125" class="er attributeBoxOdd"></rect><text style="dominant-baseline: middle; font-size: 10.2px;" transform="translate(52.078125,87.015625)" y="0" x="0" id="text-entity-GENE-fc82c0b4-a810-5129-91d6-3282fadf09bd-attr-3-name" class="er entityLabel">Uniprot_Accession</text><rect height="24" width="47.078125" y="99.015625" x="0" class="er attributeBoxEven"></rect><text style="dominant-baseline: middle; font-size: 10.2px;" transform="translate(5,111.015625)" y="0" x="0" id="text-entity-GENE-fc82c0b4-a810-5129-91d6-3282fadf09bd-attr-4-type" class="er entityLabel">string</text><rect height="24" width="97.453125" y="99.015625" x="47.078125" class="er attributeBoxEven"></rect><text style="dominant-baseline: middle; font-size: 10.2px;" transform="translate(52.078125,111.015625)" y="0" x="0" id="text-entity-GENE-fc82c0b4-a810-5129-91d6-3282fadf09bd-attr-4-name" class="er entityLabel">Full_Name</text><rect height="24" width="47.078125" y="123.015625" x="0" class="er attributeBoxOdd"></rect><text style="dominant-baseline: middle; font-size: 10.2px;" transform="translate(5,135.015625)" y="0" x="0" id="text-entity-GENE-fc82c0b4-a810-5129-91d6-3282fadf09bd-attr-5-type" class="er entityLabel">string</text><rect height="24" width="97.453125" y="123.015625" x="47.078125" class="er attributeBoxOdd"></rect><text style="dominant-baseline: middle; font-size: 10.2px;" transform="translate(52.078125,135.015625)" y="0" x="0" id="text-entity-GENE-fc82c0b4-a810-5129-91d6-3282fadf09bd-attr-5-name" class="er entityLabel">Protein_Class</text><rect height="24" width="47.078125" y="147.015625" x="0" class="er attributeBoxEven"></rect><text style="dominant-baseline: middle; font-size: 10.2px;" transform="translate(5,159.015625)" y="0" x="0" id="text-entity-GENE-fc82c0b4-a810-5129-91d6-3282fadf09bd-attr-6-type" class="er entityLabel">decimal</text><rect height="24" width="97.453125" y="147.015625" x="47.078125" class="er attributeBoxEven"></rect><text style="dominant-baseline: middle; font-size: 10.2px;" transform="translate(52.078125,159.015625)" y="0" x="0" id="text-entity-GENE-fc82c0b4-a810-5129-91d6-3282fadf09bd-attr-6-name" class="er entityLabel">DPI</text><rect height="24" width="47.078125" y="171.015625" x="0" class="er attributeBoxOdd"></rect><text style="dominant-baseline: middle; font-size: 10.2px;" transform="translate(5,183.015625)" y="0" x="0" id="text-entity-GENE-fc82c0b4-a810-5129-91d6-3282fadf09bd-attr-7-type" class="er entityLabel">decimal</text><rect height="24" width="97.453125" y="171.015625" x="47.078125" class="er attributeBoxOdd"></rect><text style="dominant-baseline: middle; font-size: 10.2px;" transform="translate(52.078125,183.015625)" y="0" x="0" id="text-entity-GENE-fc82c0b4-a810-5129-91d6-3282fadf09bd-attr-7-name" class="er entityLabel">DSI</text><rect height="24" width="47.078125" y="195.015625" x="0" class="er attributeBoxEven"></rect><text style="dominant-baseline: middle; font-size: 10.2px;" transform="translate(5,207.015625)" y="0" x="0" id="text-entity-GENE-fc82c0b4-a810-5129-91d6-3282fadf09bd-attr-8-type" class="er entityLabel">string</text><rect height="24" width="97.453125" y="195.015625" x="47.078125" class="er attributeBoxEven"></rect><text style="dominant-baseline: middle; font-size: 10.2px;" transform="translate(52.078125,207.015625)" y="0" x="0" id="text-entity-GENE-fc82c0b4-a810-5129-91d6-3282fadf09bd-attr-8-name" class="er entityLabel">pLi</text></g><g transform="translate(863.083984375,339.015625 )" id="entity-GENEDISEASEASSOC-37456f03-5f17-53a2-bd6c-4124ba31ded3"><rect height="171.015625" width="155.83203125" y="0" x="0" class="er entityBox"></rect><text style="dominant-baseline: middle; text-anchor: middle; font-size: 12px;" transform="translate(77.916015625,13.5078125)" y="0" x="0" id="text-entity-GENEDISEASEASSOC-37456f03-5f17-53a2-bd6c-4124ba31ded3" class="er entityLabel">GENE_DISEASE_ASSOC</text><rect height="24" width="55.764312744140625" y="27.015625" x="0" class="er attributeBoxOdd"></rect><text style="dominant-baseline: middle; font-size: 10.2px;" transform="translate(5,39.015625)" y="0" x="0" id="text-entity-GENEDISEASEASSOC-37456f03-5f17-53a2-bd6c-4124ba31ded3-attr-1-type" class="er entityLabel">string</text><rect height="24" width="100.06771850585938" y="27.015625" x="55.764312744140625" class="er attributeBoxOdd"></rect><text style="dominant-baseline: middle; font-size: 10.2px;" transform="translate(60.764312744140625,39.015625)" y="0" x="0" id="text-entity-GENEDISEASEASSOC-37456f03-5f17-53a2-bd6c-4124ba31ded3-attr-1-name" class="er entityLabel">UMLS_CUI</text><rect height="24" width="55.764312744140625" y="51.015625" x="0" class="er attributeBoxEven"></rect><text style="dominant-baseline: middle; font-size: 10.2px;" transform="translate(5,63.015625)" y="0" x="0" id="text-entity-GENEDISEASEASSOC-37456f03-5f17-53a2-bd6c-4124ba31ded3-attr-2-type" class="er entityLabel">int</text><rect height="24" width="100.06771850585938" y="51.015625" x="55.764312744140625" class="er attributeBoxEven"></rect><text style="dominant-baseline: middle; font-size: 10.2px;" transform="translate(60.764312744140625,63.015625)" y="0" x="0" id="text-entity-GENEDISEASEASSOC-37456f03-5f17-53a2-bd6c-4124ba31ded3-attr-2-name" class="er entityLabel">Entrez_ID</text><rect height="24" width="55.764312744140625" y="75.015625" x="0" class="er attributeBoxOdd"></rect><text style="dominant-baseline: middle; font-size: 10.2px;" transform="translate(5,87.015625)" y="0" x="0" id="text-entity-GENEDISEASEASSOC-37456f03-5f17-53a2-bd6c-4124ba31ded3-attr-3-type" class="er entityLabel">bigint</text><rect height="24" width="100.06771850585938" y="75.015625" x="55.764312744140625" class="er attributeBoxOdd"></rect><text style="dominant-baseline: middle; font-size: 10.2px;" transform="translate(60.764312744140625,87.015625)" y="0" x="0" id="text-entity-GENEDISEASEASSOC-37456f03-5f17-53a2-bd6c-4124ba31ded3-attr-3-name" class="er entityLabel">PMID</text><rect height="24" width="55.764312744140625" y="99.015625" x="0" class="er attributeBoxEven"></rect><text style="dominant-baseline: middle; font-size: 10.2px;" transform="translate(5,111.015625)" y="0" x="0" id="text-entity-GENEDISEASEASSOC-37456f03-5f17-53a2-bd6c-4124ba31ded3-attr-4-type" class="er entityLabel">year</text><rect height="24" width="100.06771850585938" y="99.015625" x="55.764312744140625" class="er attributeBoxEven"></rect><text style="dominant-baseline: middle; font-size: 10.2px;" transform="translate(60.764312744140625,111.015625)" y="0" x="0" id="text-entity-GENEDISEASEASSOC-37456f03-5f17-53a2-bd6c-4124ba31ded3-attr-4-name" class="er entityLabel">PMID_Year</text><rect height="24" width="55.764312744140625" y="123.015625" x="0" class="er attributeBoxOdd"></rect><text style="dominant-baseline: middle; font-size: 10.2px;" transform="translate(5,135.015625)" y="0" x="0" id="text-entity-GENEDISEASEASSOC-37456f03-5f17-53a2-bd6c-4124ba31ded3-attr-5-type" class="er entityLabel">decimal</text><rect height="24" width="100.06771850585938" y="123.015625" x="55.764312744140625" class="er attributeBoxOdd"></rect><text style="dominant-baseline: middle; font-size: 10.2px;" transform="translate(60.764312744140625,135.015625)" y="0" x="0" id="text-entity-GENEDISEASEASSOC-37456f03-5f17-53a2-bd6c-4124ba31ded3-attr-5-name" class="er entityLabel">Score</text><rect height="24" width="55.764312744140625" y="147.015625" x="0" class="er attributeBoxEven"></rect><text style="dominant-baseline: middle; font-size: 10.2px;" transform="translate(5,159.015625)" y="0" x="0" id="text-entity-GENEDISEASEASSOC-37456f03-5f17-53a2-bd6c-4124ba31ded3-attr-6-type" class="er entityLabel">string</text><rect height="24" width="100.06771850585938" y="147.015625" x="55.764312744140625" class="er attributeBoxEven"></rect><text style="dominant-baseline: middle; font-size: 10.2px;" transform="translate(60.764312744140625,159.015625)" y="0" x="0" id="text-entity-GENEDISEASEASSOC-37456f03-5f17-53a2-bd6c-4124ba31ded3-attr-6-name" class="er entityLabel">Association_Type</text></g><g transform="translate(1163.265625,68 )" id="entity-USER-6e7e2962-0c6f-577d-a7fd-2ce3a0cfd2c8"><rect height="123.015625" width="100" y="0" x="0" class="er entityBox"></rect><text style="dominant-baseline: middle; text-anchor: middle; font-size: 12px;" transform="translate(50,13.5078125)" y="0" x="0" id="text-entity-USER-6e7e2962-0c6f-577d-a7fd-2ce3a0cfd2c8" class="er entityLabel">USER</text><rect height="24" width="39.075225830078125" y="27.015625" x="0" class="er attributeBoxOdd"></rect><text style="dominant-baseline: middle; font-size: 10.2px;" transform="translate(5,39.015625)" y="0" x="0" id="text-entity-USER-6e7e2962-0c6f-577d-a7fd-2ce3a0cfd2c8-attr-1-type" class="er entityLabel">int</text><rect height="24" width="60.924774169921875" y="27.015625" x="39.075225830078125" class="er attributeBoxOdd"></rect><text style="dominant-baseline: middle; font-size: 10.2px;" transform="translate(44.075225830078125,39.015625)" y="0" x="0" id="text-entity-USER-6e7e2962-0c6f-577d-a7fd-2ce3a0cfd2c8-attr-1-name" class="er entityLabel">ID</text><rect height="24" width="39.075225830078125" y="51.015625" x="0" class="er attributeBoxEven"></rect><text style="dominant-baseline: middle; font-size: 10.2px;" transform="translate(5,63.015625)" y="0" x="0" id="text-entity-USER-6e7e2962-0c6f-577d-a7fd-2ce3a0cfd2c8-attr-2-type" class="er entityLabel">string</text><rect height="24" width="60.924774169921875" y="51.015625" x="39.075225830078125" class="er attributeBoxEven"></rect><text style="dominant-baseline: middle; font-size: 10.2px;" transform="translate(44.075225830078125,63.015625)" y="0" x="0" id="text-entity-USER-6e7e2962-0c6f-577d-a7fd-2ce3a0cfd2c8-attr-2-name" class="er entityLabel">Username</text><rect height="24" width="39.075225830078125" y="75.015625" x="0" class="er attributeBoxOdd"></rect><text style="dominant-baseline: middle; font-size: 10.2px;" transform="translate(5,87.015625)" y="0" x="0" id="text-entity-USER-6e7e2962-0c6f-577d-a7fd-2ce3a0cfd2c8-attr-3-type" class="er entityLabel">string</text><rect height="24" width="60.924774169921875" y="75.015625" x="39.075225830078125" class="er attributeBoxOdd"></rect><text style="dominant-baseline: middle; font-size: 10.2px;" transform="translate(44.075225830078125,87.015625)" y="0" x="0" id="text-entity-USER-6e7e2962-0c6f-577d-a7fd-2ce3a0cfd2c8-attr-3-name" class="er entityLabel">Password</text><rect height="24" width="39.075225830078125" y="99.015625" x="0" class="er attributeBoxEven"></rect><text style="dominant-baseline: middle; font-size: 10.2px;" transform="translate(5,111.015625)" y="0" x="0" id="text-entity-USER-6e7e2962-0c6f-577d-a7fd-2ce3a0cfd2c8-attr-4-type" class="er entityLabel">enum</text><rect height="24" width="60.924774169921875" y="99.015625" x="39.075225830078125" class="er attributeBoxEven"></rect><text style="dominant-baseline: middle; font-size: 10.2px;" transform="translate(44.075225830078125,111.015625)" y="0" x="0" id="text-entity-USER-6e7e2962-0c6f-577d-a7fd-2ce3a0cfd2c8-attr-4-name" class="er entityLabel">Role</text></g><rect height="17.015625" width="57.3125" y="226.3056640625" x="230.00827026367188" class="er relationshipLabelBox"></rect><text style="text-anchor: middle; dominant-baseline: middle; font-size: 12px;" y="234.8134765625" x="258.6645202636719" id="rel1" class="er relationshipLabel">UMLS_CUI</text><rect height="17.015625" width="57.3125" y="271.33221435546875" x="385.8941955566406" class="er relationshipLabelBox"></rect><text style="text-anchor: middle; dominant-baseline: middle; font-size: 12px;" y="279.84002685546875" x="414.5504455566406" id="rel2" class="er relationshipLabel">UMLS_CUI</text><rect height="17.015625" width="57.3125" y="271.33209228515625" x="641.448486328125" class="er relationshipLabelBox"></rect><text style="text-anchor: middle; dominant-baseline: middle; font-size: 12px;" y="279.83990478515625" x="670.104736328125" id="rel3" class="er relationshipLabel">UMLS_CUI</text><rect height="17.015625" width="52.890625" y="281.5924072265625" x="961.2747802734375" class="er relationshipLabelBox"></rect><text style="text-anchor: middle; dominant-baseline: middle; font-size: 12px;" y="290.1002197265625" x="987.7200927734375" id="rel4" class="er relationshipLabel">Entrez_ID</text><rect height="17.015625" width="57.3125" y="228.1845245361328" x="727.8875122070312" class="er relationshipLabelBox"></rect><text style="text-anchor: middle; dominant-baseline: middle; font-size: 12px;" y="236.6923370361328" x="756.5437622070312" id="rel5" class="er relationshipLabel">UMLS_CUI</text><rect height="17.015625" width="12.0625" y="121.00001525878906" x="1356.4007568359375" class="er relationshipLabelBox"></rect><text style="text-anchor: middle; dominant-baseline: middle; font-size: 12px;" y="129.50782775878906" x="1362.4320068359375" id="rel6" class="er relationshipLabel">ID</text></svg>